<svg width="103.51px" height="103.51px" viewBox="0 -0.08 103.51 103.51" xmlns="http://www.w3.org/2000/svg" xmlns:xlink="http://www.w3.org/1999/xlink">
  <defs>
    <clipPath id="clip-path">
      <circle id="Ellipse_23" data-name="Ellipse 23" cx="51.203" cy="51.203" r="51.203" transform="translate(565.305 40.759)" fill="none"/>
    </clipPath>
    <clipPath id="clip-path-2">
      <circle id="Ellipse_24" data-name="Ellipse 24" cx="51.203" cy="51.203" r="51.203" transform="translate(564.201 39.808)" fill="none"/>
    </clipPath>
    <clipPath id="clip-path-3">
      <path id="Rectangle_7" data-name="Rectangle 7" d="M2.488,0h16.4a2.488,2.488,0,0,1,2.488,2.488v.255A10.688,10.688,0,0,1,10.688,13.431h0A10.688,10.688,0,0,1,0,2.743V2.488A2.488,2.488,0,0,1,2.488,0Z" transform="translate(627.195 131.237) rotate(-180)" fill="none"/>
    </clipPath>
  </defs>
  <g id="Earth" transform="translate(-564.201 -39.808)">
    <circle id="Ellipse_18" data-name="Ellipse 18" cx="51.203" cy="51.203" r="51.203" transform="translate(564.201 39.808)" fill="#5baed1"/>
    <g id="Group_22" data-name="Group 22">
      <g id="Group_21" data-name="Group 21">
        <circle id="Ellipse_19" data-name="Ellipse 19" cx="3.218" cy="3.218" r="3.218" transform="translate(595.555 95.472)" fill="#312449"/>
        <circle id="Ellipse_20" data-name="Ellipse 20" cx="3.218" cy="3.218" r="3.218" transform="translate(628.815 95.472)" fill="#312449"/>
      </g>
    </g>
    <circle id="Ellipse_21" data-name="Ellipse 21" cx="0.594" cy="0.594" r="0.594" transform="translate(596.374 97.251)" fill="#fff"/>
    <circle id="Ellipse_22" data-name="Ellipse 22" cx="0.594" cy="0.594" r="0.594" transform="translate(629.634 97.251)" fill="#fff"/>
    <g id="Group_24" data-name="Group 24">
      <g id="Group_23" data-name="Group 23" clip-path="url(#clip-path)">
        <path id="Path_20" data-name="Path 20" d="M609.125,41.291s4.239,12.461,1.53,16.691S604.147,68.258,598.072,69s-8.483-3.428-12.7.762-5.718,9.971-4.514,13.25a106.367,106.367,0,0,0,5.417,10.586s.6,7.785-.3,9.267-.3,3.8-8.427,6.527-24.076-3.522-24.076-3.522l-9.931-47.884L585.978,30.01Z" opacity="0.2" style="mix-blend-mode: darken;isolation: isolate"/>
        <path id="Path_21" data-name="Path 21" d="M700.834,88.876s-11.357,6.653-16.043,4.849-11.374-4.314-13.316-10.117,1.656-9-3.294-12.285-10.916-3.6-13.886-1.764a106.35,106.35,0,0,0-9.284,7.431s-7.506,2.152-9.139,1.565-3.782.47-8.086-6.945S622.771,25.8,622.771,25.8l48.552,2.183,35.918,35.957Z" opacity="0.2" style="mix-blend-mode: darken;isolation: isolate"/>
        <path id="Path_22" data-name="Path 22" d="M608.05,95.624c-1.141-1.394-1.834-5.168-1.383-7.07s1.075-4.62,2.6-5.153,2.4,1.159,3.239-.78a8.85,8.85,0,0,0,.384-5.818c-.505-1.357-2.027-4.325-2.027-4.325a23.51,23.51,0,0,1-.471-3.967,3.54,3.54,0,0,1,1.794-3.088c1.942-1.456,6.438.64,6.438.64s6.289,14.962,5.4,20.085c-.7,4.034-5.273,12.87-9.324,13.462C612.787,99.89,609.279,97.124,608.05,95.624Z" opacity="0.2" style="mix-blend-mode: darken;isolation: isolate"/>
      </g>
    </g>
    <g id="Group_26" data-name="Group 26">
      <g id="Group_25" data-name="Group 25" clip-path="url(#clip-path-2)">
        <path id="Path_23" data-name="Path 23" d="M608.021,40.339s4.239,12.461,1.53,16.691-6.508,10.277-12.583,11.015-8.483-3.429-12.7.761-5.718,9.971-4.514,13.25a106.467,106.467,0,0,0,5.417,10.586s.6,7.785-.3,9.267-.3,3.8-8.427,6.527-24.075-3.522-24.075-3.522L542.44,57.03l42.434-27.972Z" fill="#9ed32b"/>
        <path id="Path_24" data-name="Path 24" d="M699.73,87.924s-11.356,6.654-16.043,4.849-11.374-4.314-13.316-10.117,1.656-9-3.294-12.285-10.916-3.6-13.886-1.764a106.543,106.543,0,0,0-9.284,7.431S636.4,78.19,634.768,77.6s-3.782.47-8.085-6.945-5.016-45.814-5.016-45.814l48.552,2.183,35.919,35.957Z" fill="#9ed32b"/>
        <path id="Path_25" data-name="Path 25" d="M606.946,94.672c-1.141-1.394-1.834-5.168-1.383-7.07s1.076-4.62,2.6-5.153,2.4,1.159,3.239-.78a8.858,8.858,0,0,0,.385-5.818c-.506-1.357-2.028-4.325-2.028-4.325a23.519,23.519,0,0,1-.47-3.967,3.535,3.535,0,0,1,1.794-3.088c1.941-1.456,6.437.64,6.437.64s6.289,14.962,5.4,20.085c-.7,4.034-5.273,12.87-9.324,13.462C611.683,98.938,608.175,96.172,606.946,94.672Z" fill="#9ed32b"/>
        <path id="Path_26" data-name="Path 26" d="M655.135,120.376c1.977,1.545,4.03,7.175,1.95,9.845s-4.994,6.484-10.015,7.268-7.192-1.559-10.524,1.173-4.349,6.258-3.215,8.14a59.8,59.8,0,0,0,4.933,5.992s.817,4.6.126,5.532-.094,2.277-6.74,4.362-38.325.056-38.325.056l7.965-28.716s24.531-17.272,34.142-19.052C640.454,114.047,651.11,117.232,655.135,120.376Z" fill="#9ed32b"/>
      </g>
    </g>
    <path id="Path_27" data-name="Path 27" d="M615.4,142.213a51.2,51.2,0,0,0,34.33-89.19,51.01,51.01,0,0,1,13.215,34.33c0,28.279-26.649,54.332-54.928,54.332" opacity="0.2" style="mix-blend-mode: darken;isolation: isolate"/>
    <path id="Path_28" data-name="Path 28" d="M598.286,49.618a9.272,9.272,0,0,0-7.513,1.693c-3.991,2.765-2.809,4.967-1.4,5.7s4.582.225,5.8.62,1.868.171,3.725-.62-.657-2.058.895-3.569,3.03-2.057,1.552-3.053A4.763,4.763,0,0,0,598.286,49.618Z" fill="#5baed1"/>
    <path id="Path_29" data-name="Path 29" d="M591.331,51.838a9.272,9.272,0,0,1,7.513-1.693,4.759,4.759,0,0,1,3.057.771l.018.014a1.547,1.547,0,0,0-.545-.541,4.763,4.763,0,0,0-3.056-.771,9.272,9.272,0,0,0-7.513,1.693c-3.629,2.514-2.979,4.558-1.776,5.46C588.255,55.719,588.293,53.942,591.331,51.838Z" opacity="0.2" style="mix-blend-mode: darken;isolation: isolate"/>
    <g id="Group_29" data-name="Group 29">
      <path id="Rectangle_6" data-name="Rectangle 6" d="M2.488,0h16.4a2.488,2.488,0,0,1,2.488,2.488v.255A10.688,10.688,0,0,1,10.688,13.431h0A10.688,10.688,0,0,1,0,2.743V2.488A2.488,2.488,0,0,1,2.488,0Z" transform="translate(627.195 131.237) rotate(-180)" fill="#312449"/>
      <path id="Path_30" data-name="Path 30" d="M616.507,117.806c-.327,0-.65.02-.97.049a10.685,10.685,0,0,1,9.718,10.639v.255a2.488,2.488,0,0,1-2.488,2.488h1.94a2.488,2.488,0,0,0,2.488-2.488v-.255A10.688,10.688,0,0,0,616.507,117.806Z" opacity="0.2" style="mix-blend-mode: darken;isolation: isolate"/>
      <g id="Group_28" data-name="Group 28">
        <g id="Group_27" data-name="Group 27" clip-path="url(#clip-path-3)">
          <ellipse id="Ellipse_25" data-name="Ellipse 25" cx="7.16" cy="4.646" rx="7.16" ry="4.646" transform="translate(609.347 128.4)" fill="#fd1a16"/>
        </g>
      </g>
    </g>
  </g>
</svg>
