<svg width="121.03px" height="121.03px" viewBox="-9.31 0 121.03 121.03" xmlns="http://www.w3.org/2000/svg">
  <g id="Mars" transform="translate(-122.305 -206.956)">
    <g id="Group_60" data-name="Group 60">
      <ellipse id="Ellipse_43" data-name="Ellipse 43" cx="51.203" cy="48.911" rx="51.203" ry="48.911" transform="translate(122.305 230.163)" fill="#ec3d1e"/>
      <path id="Path_55" data-name="Path 55" d="M173.508,327.986c28.279,0,51.2-21.9,51.2-48.912a47.845,47.845,0,0,0-16.873-36.287,47.532,47.532,0,0,1,13.216,32.794c0,27.013-26.65,51.9-54.929,51.9" opacity="0.2" style="mix-blend-mode: darken;isolation: isolate"/>
      <text id="Z" transform="translate(192.057 230.629)" fill="#f0f5f9" font-size="7.588" font-family="SegoeUI, Segoe UI" opacity="0.5"><tspan x="-2.164" y="0">Z</tspan></text>
      <text id="Z-2" data-name="Z" transform="translate(197.441 225.181)" fill="#f0f5f9" font-size="11.163" font-family="SegoeUI, Segoe UI" opacity="0.4"><tspan x="-3.183" y="0">Z</tspan></text>
      <text id="Z-3" data-name="Z" transform="translate(203.482 221.956)" fill="#f0f5f9" font-size="13.863" font-family="SegoeUI, Segoe UI" opacity="0.3"><tspan x="-3.953" y="0">Z</tspan></text>
      <path id="Path_56" data-name="Path 56" d="M152.3,284.463a8.934,8.934,0,0,1,3.88-.583c3.035,0,3.881.583,3.881.583" fill="none" stroke="#1c142a" stroke-linecap="round" stroke-miterlimit="10" stroke-width="1.806"/>
      <path id="Path_57" data-name="Path 57" d="M180.517,304.9s-1.925,1.053-7.009,1.053c-5.48,0-7.008-1.053-7.008-1.053" fill="none" stroke="#1c142a" stroke-linecap="round" stroke-miterlimit="10" stroke-width="2.709"/>
      <path id="Path_58" data-name="Path 58" d="M186.957,284.463a8.937,8.937,0,0,1,3.881-.583c3.034,0,3.88.583,3.88.583" fill="none" stroke="#1c142a" stroke-linecap="round" stroke-miterlimit="10" stroke-width="1.806"/>
      <g id="Group_55" data-name="Group 55" opacity="0.8">
        <circle id="Ellipse_44" data-name="Ellipse 44" cx="3.77" cy="3.77" r="3.77" transform="translate(154.188 242.043)" fill="#312449" opacity="0.1" style="mix-blend-mode: darken;isolation: isolate"/>
        <path id="Path_59" data-name="Path 59" d="M155.332,245.813a3.76,3.76,0,0,1,3.2-3.712,3.721,3.721,0,0,0-.572-.058,3.77,3.77,0,1,0,0,7.539,3.849,3.849,0,0,0,.572-.057A3.761,3.761,0,0,1,155.332,245.813Z" fill="#312449" opacity="0.1" style="mix-blend-mode: darken;isolation: isolate"/>
      </g>
      <g id="Group_56" data-name="Group 56" opacity="0.8">
        <circle id="Ellipse_45" data-name="Ellipse 45" cx="3.643" cy="3.643" r="3.643" transform="translate(210.854 269.483)" fill="#312449" opacity="0.1" style="mix-blend-mode: darken;isolation: isolate"/>
        <path id="Path_60" data-name="Path 60" d="M211.96,273.125a3.633,3.633,0,0,1,3.089-3.587,3.587,3.587,0,0,0-.553-.055,3.643,3.643,0,0,0,0,7.285,3.587,3.587,0,0,0,.553-.056A3.633,3.633,0,0,1,211.96,273.125Z" fill="#312449" opacity="0.1" style="mix-blend-mode: darken;isolation: isolate"/>
      </g>
      <g id="Group_57" data-name="Group 57" opacity="0.8">
        <circle id="Ellipse_46" data-name="Ellipse 46" cx="3.643" cy="3.643" r="3.643" transform="translate(146.903 299.668)" fill="#312449" opacity="0.1" style="mix-blend-mode: darken;isolation: isolate"/>
        <path id="Path_61" data-name="Path 61" d="M148.009,303.311a3.633,3.633,0,0,1,3.089-3.587,3.587,3.587,0,0,0-.553-.056,3.643,3.643,0,0,0,0,7.285,3.587,3.587,0,0,0,.553-.055A3.633,3.633,0,0,1,148.009,303.311Z" fill="#312449" opacity="0.1" style="mix-blend-mode: darken;isolation: isolate"/>
      </g>
      <path id="Path_62" data-name="Path 62" d="M183.988,247.054l-5.868,5.417-.731,6.546,5.019,7.448,7.449-2.094,2.821,4.464s4.22-3.967,4.762-4.749,1.783-8.681,1.783-9.019-1.535-6.772-1.783-6.772-7.7.913-8.035.964-3.611.513-3.611,0a20.721,20.721,0,0,0-.339-2.205Z" fill="#312449" opacity="0.1" style="mix-blend-mode: darken;isolation: isolate"/>
      <g id="Group_58" data-name="Group 58">
        <path id="Path_63" data-name="Path 63" d="M191.286,249.259c.238-.036,3.973-.495,6.268-.767-.048-.117-.089-.2-.114-.2-.248,0-7.7.913-8.035.964-.14.022-.786.113-1.492.177A14.352,14.352,0,0,0,191.286,249.259Z" fill="#312449" opacity="0.1" style="mix-blend-mode: darken;isolation: isolate"/>
        <path id="Path_64" data-name="Path 64" d="M179.27,259.017l.731-6.546,5.517-5.093c-.037-.193-.063-.324-.063-.324h-1.467l-5.868,5.417-.731,6.546,5.019,7.448,1.581-.445Z" fill="#312449" opacity="0.1" style="mix-blend-mode: darken;isolation: isolate"/>
        <path id="Path_65" data-name="Path 65" d="M191.737,264.371l-1.6.449,2.538,4.015s.5-.471,1.175-1.116Z" fill="#312449" opacity="0.1" style="mix-blend-mode: darken;isolation: isolate"/>
      </g>
      <path id="Path_66" data-name="Path 66" d="M186.8,309.576l-4.141,1.6-.516,1.934,3.542,2.2,5.255-.618,1.991,1.318s2.977-1.171,3.36-1.4a9.972,9.972,0,0,0,1.259-2.664,9.283,9.283,0,0,0-1.259-2c-.175,0-5.43.27-5.669.285a13,13,0,0,1-2.548,0,3,3,0,0,0-.239-.651Z" fill="#312449" opacity="0.1" style="mix-blend-mode: darken;isolation: isolate"/>
      <g id="Group_59" data-name="Group 59">
        <path id="Path_67" data-name="Path 67" d="M191.953,310.227c.168-.011,2.8-.147,4.422-.227-.034-.034-.062-.058-.08-.058-.175,0-5.43.27-5.669.285-.1.006-.555.033-1.053.052C190.1,310.337,191.753,310.24,191.953,310.227Z" fill="#312449" opacity="0.1" style="mix-blend-mode: darken;isolation: isolate"/>
        <path id="Path_68" data-name="Path 68" d="M183.474,313.109l.516-1.934,3.893-1.5-.044-.1H186.8l-4.141,1.6-.516,1.934,3.542,2.2,1.115-.131Z" fill="#312449" opacity="0.1" style="mix-blend-mode: darken;isolation: isolate"/>
        <path id="Path_69" data-name="Path 69" d="M192.271,314.69l-1.126.132,1.79,1.186s.354-.139.829-.329Z" fill="#312449" opacity="0.1" style="mix-blend-mode: darken;isolation: isolate"/>
      </g>
    </g>
    <path id="Path_70" data-name="Path 70" d="M128.7,268.6l-3.923,5.018-.488,6.063,3.355,6.9,4.978-1.94,1.886,4.136s2.82-3.675,3.183-4.4a78.945,78.945,0,0,0,1.192-8.355,61.527,61.527,0,0,0-1.192-6.272c-.166,0-5.144.845-5.371.893s-2.413.475-2.413,0-.227-2.043-.227-2.043Z" fill="#312449" opacity="0.1" style="mix-blend-mode: darken;isolation: isolate"/>
    <g id="Group_61" data-name="Group 61">
      <path id="Path_71" data-name="Path 71" d="M133.576,270.644c.158-.034,2.655-.46,4.189-.711-.033-.109-.06-.182-.076-.182-.166,0-5.144.845-5.371.893-.093.019-.525.1-1,.163A6.991,6.991,0,0,0,133.576,270.644Z" fill="#312449" opacity="0.1" style="mix-blend-mode: darken;isolation: isolate"/>
      <path id="Path_72" data-name="Path 72" d="M125.544,279.682l.489-6.063,3.687-4.718c-.024-.179-.042-.3-.042-.3h-.98l-3.923,5.018-.488,6.063,3.355,6.9,1.057-.412Z" fill="#312449" opacity="0.1" style="mix-blend-mode: darken;isolation: isolate"/>
      <path id="Path_73" data-name="Path 73" d="M133.877,284.641l-1.067.416,1.7,3.72s.335-.437.785-1.034Z" fill="#312449" opacity="0.1" style="mix-blend-mode: darken;isolation: isolate"/>
    </g>
  </g>
</svg>
