<svg width="97.095px" height="97.095px" viewBox="0 0 97.095 97.095" xmlns="http://www.w3.org/2000/svg" xmlns:xlink="http://www.w3.org/1999/xlink">
  <defs>
    <clipPath id="clip-path">
      <circle id="Ellipse_42" data-name="Ellipse 42" cx="48.548" cy="48.548" r="48.548" transform="translate(125.612 414.812)" fill="none"/>
    </clipPath>
  </defs>
  <g id="Neptune" transform="translate(-125.612 -414.812)">
    <g id="Group_53" data-name="Group 53">
      <circle id="Ellipse_41" data-name="Ellipse 41" cx="48.548" cy="48.548" r="48.548" transform="translate(125.612 414.812)" fill="#4462ab"/>
      <g id="Group_52" data-name="Group 52">
        <g id="Group_51" data-name="Group 51" clip-path="url(#clip-path)">
          <path id="Path_46" data-name="Path 46" d="M123.372,437.768s69.518,4.883,102.923,0-3.588,11.19-3.588,11.19-42.49-2.035-97.1,5.9S123.372,437.768,123.372,437.768Z" opacity="0.07" style="mix-blend-mode: darken;isolation: isolate"/>
          <path id="Path_47" data-name="Path 47" d="M119.04,477.58s68.308,13.81,102.064,13.277-5,10.634-5,10.634-41.873-7.5-97.045-6.674S119.04,477.58,119.04,477.58Z" opacity="0.07" style="mix-blend-mode: darken;isolation: isolate"/>
          <path id="Path_48" data-name="Path 48" d="M125.282,403.668s68.259,16.269,102.435,10.019-5.7,21.426-5.7,21.426-41.9-8.1-97.757,2.029S125.282,403.668,125.282,403.668Z" fill="#fff" opacity="0.1"/>
          <path id="Path_49" data-name="Path 49" d="M215.971,487.259S147.712,470.99,113.537,477.24s5.7-21.425,5.7-21.425,41.9,8.1,97.758-2.03S215.971,487.259,215.971,487.259Z" fill="#fff" opacity="0.1"/>
          <path id="Path_50" data-name="Path 50" d="M213.387,534.777s-66.531-22.306-101.129-19.137,7.594-20.83,7.594-20.83,41.01,11.809,97.547,6.719S213.387,534.777,213.387,534.777Z" fill="#fff" opacity="0.1"/>
        </g>
      </g>
      <path id="Path_51" data-name="Path 51" d="M174.127,511.907a48.391,48.391,0,0,0,32.446-84.294,48.211,48.211,0,0,1,12.49,32.445c0,26.727-25.187,51.349-51.913,51.349" opacity="0.2" style="mix-blend-mode: darken;isolation: isolate"/>
    </g>
    <path id="Path_52" data-name="Path 52" d="M161,468.651s-1.065,1.486-3.881,1.486c-3.034,0-3.88-1.486-3.88-1.486" fill="none" stroke="#1c142a" stroke-linecap="round" stroke-miterlimit="10" stroke-width="1.806"/>
    <path id="Path_53" data-name="Path 53" d="M184.048,490.495s-2.715,1.981-9.888,1.981c-7.732,0-9.889-1.981-9.889-1.981" fill="none" stroke="#1c142a" stroke-linecap="round" stroke-miterlimit="10" stroke-width="2.709"/>
    <path id="Path_54" data-name="Path 54" d="M194.256,468.943s-1.065,1.486-3.881,1.486c-3.034,0-3.88-1.486-3.88-1.486" fill="none" stroke="#1c142a" stroke-linecap="round" stroke-miterlimit="10" stroke-width="1.806"/>
  </g>
</svg>
